<svg width="100" height="100" viewBox="0 0 100 100" fill="none" xmlns="http://www.w3.org/2000/svg">
<path d="M67.0796 16.9185H59.1772C47.7888 16.9185 37.4341 21.401 29.761 28.6846L31.8637 35.2725L39.1342 31.5809L67.0796 16.9185ZM67.0796 16.9185V39.5005H61.1934C49.7526 39.5005 40.4453 48.8077 40.4453 60.2485V67.832H16.4058V59.6895C16.4058 48.5079 20.7268 38.3224 27.7779 30.6934L29.9288 37.4325L29.9289 37.4326C30.0405 37.7815 30.2992 38.0641 30.6373 38.2057L30.6382 38.2061C30.9756 38.3459 31.3583 38.3336 31.6857 38.1666L31.6855 38.1668L31.5723 37.9438L31.6859 38.1665L67.0796 16.9185ZM38.8377 34.535L40.3183 41.0282L40.3183 41.0283C40.4507 41.6082 40.9659 42.0011 41.5364 42.0005M38.8377 34.535L39.1344 31.5808C39.4781 31.406 39.8832 31.3988 40.2317 31.5642C40.5807 31.7276 40.8332 32.043 40.919 32.4173L40.919 32.4176L42.756 40.4727L42.756 40.4728C42.9092 41.1455 42.488 41.8155 41.815 41.9693M38.8377 34.535L39.0676 34.4183L40.562 40.9727L38.8377 34.535ZM38.8377 34.535L38.7804 34.2837L38.8377 34.535ZM41.5364 42.0005C41.5363 42.0005 41.5362 42.0005 41.5361 42.0005V41.7505L41.5364 42.0005ZM41.5364 42.0005C41.6278 42.0005 41.7211 41.9908 41.815 41.9693M41.815 41.9693C41.815 41.9693 41.815 41.9693 41.815 41.9693L41.7593 41.7256L41.815 41.9693ZM89 16.9185C89.6903 16.9185 90.25 16.3588 90.25 15.6685C90.25 14.9781 89.6903 14.4185 89 14.4185H80.708V14C80.708 11.6564 78.8016 9.75 76.458 9.75H71.3296C68.986 9.75 67.0796 11.6564 67.0796 14V14.4185H59.1772C34.2145 14.4185 13.9058 34.7267 13.9058 59.6895V67.8331C11.6055 67.8833 9.75 69.7699 9.75 72.082V77.2104C9.75 79.5226 11.6055 81.4091 13.9058 81.4594V89C13.9058 89.6903 14.4654 90.25 15.1558 90.25C15.8461 90.25 16.4058 89.6903 16.4058 89V81.4604H40.4453V89C40.4453 89.6903 41.005 90.25 41.6953 90.25C42.3856 90.25 42.9453 89.6903 42.9453 89V81.4502C45.1639 81.311 46.9268 79.4639 46.9268 77.2104V72.082C46.9268 69.8286 45.1639 67.9815 42.9453 67.8423V60.2485C42.9453 50.1869 51.1317 42.0005 61.1934 42.0005H67.0796V42.6768C67.0796 45.0204 68.986 46.9268 71.3296 46.9268H76.458C78.8016 46.9268 80.708 45.0204 80.708 42.6768V42.0005H89C89.6903 42.0005 90.25 41.4408 90.25 40.7505C90.25 40.0602 89.6903 39.5005 89 39.5005H80.708V16.9185H89ZM44.4268 72.082V77.2104C44.4268 78.1754 43.6417 78.9604 42.6768 78.9604H14C13.035 78.9604 12.25 78.1754 12.25 77.2104V72.082C12.25 71.1171 13.035 70.332 14 70.332H42.6768C43.6417 70.332 44.4268 71.1171 44.4268 72.082ZM78.208 42.6768C78.208 43.6417 77.423 44.4268 76.458 44.4268H71.3296C70.3646 44.4268 69.5796 43.6417 69.5796 42.6768V14C69.5796 13.035 70.3646 12.25 71.3296 12.25H76.458C77.423 12.25 78.208 13.035 78.208 14V42.6768Z" fill="#FF445F" stroke="#FF445F" stroke-width="0.5"/>
</svg>
