<?xml version="1.0" standalone="no"?>
<!DOCTYPE svg PUBLIC "-//W3C//DTD SVG 20010904//EN"
 "http://www.w3.org/TR/2001/REC-SVG-20010904/DTD/svg10.dtd">
<svg version="1.0" xmlns="http://www.w3.org/2000/svg"
 width="512.000000pt" height="512.000000pt" viewBox="0 0 512.000000 512.000000"
 preserveAspectRatio="xMidYMid meet">

<g transform="translate(0.000000,512.000000) scale(0.100000,-0.100000)"
fill="#000000" stroke="none">
<path d="M0 2560 l0 -2560 2560 0 2560 0 0 2560 0 2560 -2560 0 -2560 0 0
-2560z m3900 490 c24 -24 24 -27 0 -165 -10 -60 -17 -111 -15 -114 5 -4 20 3
60 28 41 26 160 29 195 4 80 -55 110 -180 75 -318 -43 -168 -155 -267 -334
-295 -67 -10 -97 -10 -159 0 -42 7 -85 17 -94 22 -20 10 -22 38 -8 100 5 24
16 84 25 133 9 50 20 113 25 140 5 28 16 93 25 145 9 52 20 114 26 138 5 23 9
71 9 106 0 83 12 96 91 96 46 0 63 -4 79 -20z m-2573 -17 c20 -14 24 -22 19
-47 -4 -17 -15 -46 -25 -66 -16 -32 -21 -35 -52 -30 -19 3 -68 4 -110 4 -62
-1 -82 -6 -115 -27 -49 -31 -85 -71 -106 -117 -9 -19 -22 -47 -29 -63 -18 -40
-18 -236 0 -270 23 -43 59 -60 137 -65 l71 -4 16 73 c8 41 21 103 27 139 6 36
16 69 21 75 15 16 132 18 152 3 17 -13 17 -18 1 -108 -9 -52 -20 -117 -24
-145 -14 -93 -33 -160 -48 -171 -8 -6 -66 -17 -129 -24 -122 -14 -184 -7 -270
31 -120 53 -180 169 -170 326 9 138 43 238 114 336 58 78 183 156 278 171 61
9 216 -4 242 -21z m565 -229 c37 -19 67 -48 94 -89 27 -43 27 -227 -1 -300
-62 -165 -218 -258 -377 -225 -79 16 -119 45 -152 112 -58 117 -14 328 92 431
65 63 124 86 225 86 62 1 97 -4 119 -15z m387 -1 c5 -10 12 -88 16 -173 4 -85
11 -164 16 -175 4 -11 8 -14 8 -7 1 8 8 30 17 50 9 21 20 46 24 57 5 11 18 43
30 70 12 28 25 59 30 70 35 84 44 101 58 113 17 13 130 17 148 4 12 -8 29
-135 39 -295 l7 -98 18 38 c86 185 120 274 120 319 0 39 12 44 95 44 44 0 68
-5 79 -16 21 -20 20 -28 -4 -92 -21 -54 -234 -477 -252 -499 -13 -17 -110 -27
-155 -16 l-38 9 -6 79 c-13 166 -22 246 -31 251 -4 3 -8 1 -8 -5 0 -5 -14 -40
-31 -78 -32 -71 -46 -104 -60 -138 -46 -114 -45 -113 -101 -120 -29 -3 -71 -2
-93 2 -44 10 -52 26 -54 103 -1 46 -24 261 -43 409 -14 103 -8 111 94 111 54
0 69 -3 77 -17z m1194 1 c44 -21 87 -87 87 -134 0 -43 -29 -106 -62 -137 -12
-11 -42 -31 -65 -43 -42 -22 -179 -60 -214 -60 -20 0 -26 -34 -11 -56 31 -45
129 -58 210 -27 37 14 45 14 56 2 17 -18 39 -97 31 -109 -12 -20 -62 -38 -141
-50 -67 -11 -93 -11 -145 0 -144 30 -199 101 -199 256 0 47 4 92 9 102 5 9 17
37 27 62 32 78 98 146 176 184 65 31 186 36 241 10z m-2663 -1001 c36 -24 40
-33 40 -85 0 -61 -33 -91 -94 -86 l-41 3 -3 79 c-2 44 -1 85 2 93 7 18 67 16
96 -4z m285 7 c9 -15 -14 -40 -36 -40 -26 0 -44 -46 -30 -77 14 -31 39 -29 43
4 4 36 25 40 39 9 33 -71 -53 -106 -112 -47 -40 41 -40 89 2 130 31 31 81 42
94 21z m253 -14 c2 -10 -3 -23 -12 -28 -12 -7 -16 -24 -16 -62 0 -56 -20 -90
-37 -64 -9 14 -9 19 -12 86 -1 28 -5 42 -15 42 -7 0 -16 9 -19 19 -6 23 10 30
68 28 30 -2 41 -6 43 -21z m130 -24 c24 -67 34 -112 28 -127 -6 -16 -8 -16
-31 -1 -30 20 -61 21 -69 1 -3 -9 -12 -12 -21 -9 -18 7 -15 32 11 114 25 76
59 85 82 22z m361 39 c19 -12 6 -41 -19 -41 -12 0 -20 -7 -20 -16 0 -10 6 -14
14 -11 16 6 40 -16 29 -26 -3 -4 -15 -7 -25 -7 -11 0 -18 -7 -18 -20 0 -15 7
-20 24 -20 29 0 44 -19 25 -31 -20 -13 -73 -11 -87 3 -18 18 -16 143 4 162 17
18 51 21 73 7z m316 -7 c19 -13 25 -25 25 -54 0 -33 -4 -40 -35 -54 -19 -9
-35 -23 -35 -30 0 -22 -26 -38 -37 -24 -14 17 -15 136 -2 160 12 22 51 23 84
2z m149 10 c23 -9 20 -44 -3 -44 -28 0 -35 -17 -11 -25 25 -8 26 -21 0 -35
-28 -15 -25 -38 7 -42 40 -5 40 -26 0 -33 -68 -13 -77 -3 -77 84 0 46 5 82 12
89 13 13 47 16 72 6z m160 -19 c29 -27 32 -43 12 -71 -12 -16 -12 -22 2 -46
13 -23 14 -30 3 -40 -10 -11 -18 -6 -42 22 l-29 34 0 -28 c0 -23 -4 -27 -22
-24 -21 3 -23 9 -25 72 -1 38 2 77 8 87 14 27 61 24 93 -6z m106 -75 c0 -58
-4 -79 -14 -83 -23 -9 -26 2 -26 88 0 86 5 102 27 84 9 -8 13 -36 13 -89z
m138 73 c3 -17 -2 -23 -17 -23 -30 0 -35 -19 -6 -26 32 -8 32 -22 -1 -34 -30
-12 -27 -32 6 -40 59 -14 17 -47 -46 -35 l-34 6 0 79 c0 88 9 102 65 97 23 -1
31 -8 33 -24z m112 -31 c0 -22 24 -8 30 19 3 13 14 25 23 27 15 3 17 -7 17
-82 0 -79 -2 -86 -20 -86 -11 0 -30 16 -45 37 l-25 38 0 -31 c0 -31 -21 -60
-33 -47 -9 8 -9 168 0 176 9 10 53 -33 53 -51z m225 34 c0 -14 -10 -22 -32
-28 -29 -7 -33 -13 -33 -41 0 -39 15 -57 46 -57 28 0 42 -19 23 -31 -48 -30
-109 8 -116 74 -4 36 -1 48 22 75 22 27 34 32 59 30 23 -2 31 -8 31 -22z m153
2 c2 -12 -6 -21 -23 -28 -26 -10 -26 -30 1 -30 21 0 17 -18 -6 -30 -29 -15
-25 -40 6 -40 19 0 25 -5 22 -17 -2 -13 -15 -19 -42 -21 -21 -2 -42 0 -47 5
-4 4 -9 43 -10 87 -2 88 4 98 61 94 24 -2 36 -8 38 -20z m-2263 -11 c4 -13 5
-50 3 -82 -3 -53 -5 -60 -25 -63 -22 -3 -23 -1 -23 76 0 43 3 82 7 85 14 14
33 6 38 -16z m265 -62 c0 -84 0 -85 -25 -85 -25 0 -25 1 -25 78 0 84 3 92 32
92 16 0 18 -9 18 -85z m388 12 c3 -64 4 -67 28 -67 36 0 28 -34 -8 -38 -53 -6
-68 12 -68 83 0 75 7 97 29 93 12 -3 17 -18 19 -71z m350 61 c5 -7 12 -22 14
-33 4 -18 6 -17 16 8 12 27 37 45 49 33 3 -3 1 -23 -6 -44 -11 -33 -11 -43 3
-70 22 -42 20 -54 -6 -50 -13 2 -29 15 -37 32 l-14 29 -12 -30 c-14 -33 -43
-50 -51 -30 -2 7 2 29 11 50 11 26 12 43 5 62 -6 15 -10 33 -10 41 0 17 24 18
38 2z"/>
<path d="M3930 2663 c-61 -22 -106 -128 -112 -264 -3 -63 -3 -64 24 -67 40 -5
112 31 140 69 31 42 58 125 58 177 0 65 -53 106 -110 85z"/>
<path d="M1693 2661 c-43 -36 -73 -114 -80 -203 -5 -73 -3 -86 15 -108 28 -35
94 -32 133 6 16 15 29 34 29 41 0 7 4 13 8 13 11 0 42 135 42 178 0 19 -9 47
-21 63 -17 24 -27 29 -62 29 -26 -1 -51 -8 -64 -19z"/>
<path d="M3294 2680 c-30 -12 -84 -80 -84 -105 0 -20 4 -21 48 -15 27 3 64 15
83 26 30 18 34 25 34 60 0 36 -2 39 -30 41 -16 1 -39 -2 -51 -7z"/>
<path d="M757 1763 c-4 -3 -7 -26 -7 -50 0 -35 3 -43 18 -43 28 0 48 44 34 75
-11 24 -31 32 -45 18z"/>
<path d="M2110 1750 c0 -13 5 -18 15 -14 8 4 15 10 15 14 0 4 -7 10 -15 14
-10 4 -15 -1 -15 -14z"/>
<path d="M2410 1750 c0 -11 5 -20 10 -20 6 0 10 9 10 20 0 11 -4 20 -10 20 -5
0 -10 -9 -10 -20z"/>
</g>
</svg>
